<svg width="34" height="34" viewBox="0 0 34 34" fill="none" xmlns="http://www.w3.org/2000/svg">
<rect x="7" y="7" width="25" height="23" rx="7" fill="#6FCF97" fill-opacity="0.5"/>
<path fill-rule="evenodd" clip-rule="evenodd" d="M23.2596 3.68726C23.1946 3.20484 22.7843 2.83301 22.2878 2.83301C21.7461 2.83301 21.307 3.27552 21.307 3.82138V4.91411H12.7051V3.82138L12.6961 3.68726C12.6312 3.20484 12.2208 2.83301 11.7243 2.83301C11.1826 2.83301 10.7435 3.27552 10.7435 3.82138V4.93864C6.72436 5.21537 4.25 7.81949 4.25 12.0212V23.9471C4.25 28.4566 7.02431 31.1663 11.4697 31.1663H22.5302C26.9809 31.1663 29.7499 28.5019 29.7499 24.0468V12.0212C29.7627 7.81802 27.2963 5.21463 23.2685 4.93853V3.82138L23.2596 3.68726ZM21.307 6.89082V8.15807L21.3159 8.29218C21.3809 8.77461 21.7912 9.14644 22.2878 9.14644C22.8294 9.14644 23.2685 8.70393 23.2685 8.15807V6.92002C26.1991 7.16378 27.7978 8.92845 27.7884 12.0181V12.5906H6.2116V12.0212C6.2116 8.93345 7.81905 7.16504 10.7435 6.92022V8.15807L10.7525 8.29218C10.8174 8.77461 11.2278 9.14644 11.7243 9.14644C12.2659 9.14644 12.7051 8.70393 12.7051 8.15807V6.89082H21.307ZM6.2116 14.5673V23.9471C6.2116 27.3507 8.09421 29.1896 11.4698 29.1896H22.5302C25.9174 29.1896 27.7884 27.3892 27.7884 24.0467L27.7884 14.5673H6.2116ZM23.8018 18.7257C23.8018 18.1798 23.3626 17.7373 22.821 17.7373L22.6758 17.7463C22.1971 17.8118 21.8281 18.2253 21.8281 18.7257C21.8281 19.2715 22.2672 19.714 22.821 19.714L22.9541 19.705C23.4328 19.6396 23.8018 19.226 23.8018 18.7257ZM17.0179 17.7373C17.5596 17.7373 17.9987 18.1798 17.9987 18.7257C17.9987 19.226 17.6297 19.6396 17.151 19.705L17.0179 19.714C16.4642 19.714 16.0251 19.2715 16.0251 18.7257C16.0251 18.2253 16.394 17.8118 16.8727 17.7463L17.0179 17.7373ZM12.1838 18.7257C12.1838 18.1798 11.7447 17.7373 11.2031 17.7373L11.0579 17.7463C10.5792 17.8118 10.2102 18.2253 10.2102 18.7257C10.2102 19.2715 10.6493 19.714 11.191 19.714L11.3362 19.705C11.8149 19.6396 12.1838 19.226 12.1838 18.7257ZM22.821 22.859C23.3626 22.859 23.8018 23.3015 23.8018 23.8474C23.8018 24.3478 23.4328 24.7613 22.9541 24.8267L22.821 24.8358C22.2672 24.8358 21.8281 24.3933 21.8281 23.8474C21.8281 23.347 22.1971 22.9335 22.6758 22.868L22.821 22.859ZM17.9987 23.8474C17.9987 23.3015 17.5596 22.859 17.0179 22.859L16.8727 22.868C16.394 22.9335 16.0251 23.347 16.0251 23.8474C16.0251 24.3933 16.4642 24.8358 17.0179 24.8358L17.151 24.8267C17.6297 24.7613 17.9987 24.3478 17.9987 23.8474ZM11.2031 22.859C11.7447 22.859 12.1838 23.3015 12.1838 23.8474C12.1838 24.3478 11.8149 24.7613 11.3362 24.8267L11.191 24.8358C10.6493 24.8358 10.2102 24.3933 10.2102 23.8474C10.2102 23.347 10.5792 22.9335 11.0579 22.868L11.2031 22.859Z" fill="#333333"/>
</svg>
