<svg width="34" height="34" viewBox="0 0 34 34" fill="none" xmlns="http://www.w3.org/2000/svg">
<rect x="6" y="7" width="27" height="23" rx="3" fill="#56CCF2" fill-opacity="0.5"/>
<path fill-rule="evenodd" clip-rule="evenodd" d="M4.9585 11.8841C4.9585 10.0821 6.43183 8.61445 8.24091 8.61445H25.7594C27.5614 8.61445 29.0277 10.0821 29.0277 11.8841V16.2149C26.7001 17.6613 24.0169 18.6742 21.1921 19.1714C20.4157 17.6032 18.8007 16.5747 16.986 16.5747C15.1868 16.5747 13.5647 17.5989 12.7657 19.1587C9.95791 18.6643 7.28466 17.6556 4.9585 16.2149V11.8841ZM15.1641 4.95801H18.8219C19.7739 4.95801 20.5715 5.61109 20.8081 6.48942H13.1765C13.4145 5.61109 14.2107 4.95801 15.1641 4.95801ZM13.2942 21.3928C13.8325 21.4678 14.3241 21.1363 14.4657 20.6207C14.7817 19.4703 15.7946 18.6997 16.986 18.6997C18.1647 18.6997 19.1875 19.4873 19.4737 20.615C19.5955 21.091 20.0233 21.4168 20.5036 21.4168C20.5517 21.4168 20.6013 21.414 20.6495 21.4069C24.2889 20.9026 27.7555 19.6148 30.6767 17.6825C30.9742 17.4842 31.1527 17.1527 31.1527 16.7957V11.8841C31.1527 8.90909 28.733 6.48942 25.7594 6.48942H22.9587C22.6937 4.43384 20.9498 2.83301 18.822 2.83301H15.1642C13.0363 2.83301 11.2938 4.43242 11.0275 6.48942H8.24091C5.25883 6.48942 2.8335 8.90909 2.8335 11.8841V16.7957C2.8335 17.1527 3.012 17.4856 3.31091 17.6825C6.22783 19.6063 9.68025 20.8884 13.2942 21.3928ZM15.9307 21.7938V23.627C15.9307 24.2135 16.4067 24.6895 16.9932 24.6895C17.5797 24.6895 18.0557 24.2135 18.0557 23.627V21.7938C18.0557 21.2073 17.5797 20.7313 16.9932 20.7313C16.4067 20.7313 15.9307 21.2073 15.9307 21.7938ZM29.054 21.8402C29.0965 21.2962 29.5399 20.8627 30.0967 20.8627C30.6818 20.8627 31.1564 21.3373 31.1564 21.9224C31.1564 21.9315 31.1395 22.1496 31.1144 22.4735C31.0532 23.2631 30.9434 24.681 30.9113 25.2275C30.8305 26.5563 30.3149 27.9121 29.5314 28.8556C28.4406 30.1702 27.0509 30.7851 25.161 30.7893C24.2841 30.7907 20.6603 30.7922 17.035 30.7922C13.4112 30.7922 9.78595 30.7907 8.91045 30.7893C7.0192 30.7851 5.62945 30.1702 4.53861 28.8542C3.75661 27.9121 3.23953 26.5563 3.1602 25.2275C3.12752 24.6889 3.02012 23.3041 2.9584 22.5082C2.93181 22.1653 2.9137 21.9318 2.9137 21.9224C2.9137 21.3373 3.38828 20.8627 3.97336 20.8627C4.53011 20.8627 4.97353 21.2962 5.01603 21.8402C5.01603 21.8402 5.2342 24.318 5.28095 25.1C5.33336 25.9656 5.6847 26.9077 6.17486 27.497C6.86903 28.3342 7.63686 28.6615 8.91328 28.6643C10.6643 28.6672 23.4044 28.6672 25.1568 28.6643C26.4346 28.6615 27.2024 28.3342 27.8952 27.4984C28.3868 26.9077 28.7381 25.9656 28.7905 25.1C28.8359 24.318 29.054 21.8402 29.054 21.8402Z" fill="#333333"/>
</svg>
