<svg width="34" height="34" viewBox="0 0 34 34" fill="none" xmlns="http://www.w3.org/2000/svg">
<path d="M31.5745 21.0477C30.0827 26.0779 22.0745 30.5477 22.0745 30.5477C19.9079 28.7145 15.8185 26.864 13.5745 23.0481C11.8205 20.0654 10.692 17.9867 11.0745 14.5477C11.7999 8.02704 16.5745 2.14774 24.5745 4.54774C32.5745 6.94774 33.5647 14.3371 31.5745 21.0477Z" fill="#BB6BD9" fill-opacity="0.4"/>
<path fill-rule="evenodd" clip-rule="evenodd" d="M17.041 2.83308C10.5115 2.8109 5.17822 8.00576 4.96505 14.5083L4.9585 14.9119C5.06703 18.0991 6.15143 21.1373 8.0614 23.6405L8.50997 24.2258C10.333 26.5439 12.4996 28.5786 14.9322 30.2556L15.5179 30.6499L15.6034 30.717C16.4372 31.316 17.5629 31.316 18.3967 30.717L18.4679 30.6585C20.3981 29.4067 22.1781 27.9358 23.7725 26.275C27.014 22.8437 28.9678 18.9989 29.0415 15.0942L29.0417 14.9493C29.0638 8.40323 23.8849 3.05354 17.4024 2.83965L17.041 2.83308ZM17.0337 4.9828C22.3866 5.0011 26.7326 9.27806 26.894 14.6043L26.8986 15.0739C26.8366 18.3476 25.1225 21.7207 22.2228 24.7902C20.7443 26.3302 19.0865 27.6992 17.2885 28.8635L17.1687 28.9536C17.0719 29.0376 16.9282 29.0376 16.8314 28.9536L16.7149 28.8657C14.0364 27.1169 11.6856 24.909 9.76999 22.343C8.22698 20.3207 7.31262 17.9027 7.12858 15.3803L7.10154 14.8745C7.11972 9.50869 11.3835 5.14928 16.6934 4.9874L17.0337 4.9828ZM17 10.4849C14.4665 10.4849 12.4126 12.5451 12.4126 15.0864C12.4126 17.6278 14.4665 19.688 17 19.688C19.5336 19.688 21.5875 17.6278 21.5875 15.0864C21.5875 12.5451 19.5336 10.4849 17 10.4849ZM17 12.6345C18.35 12.6345 19.4444 13.7323 19.4444 15.0864C19.4444 16.4405 18.35 17.5383 17 17.5383C15.65 17.5383 14.5557 16.4405 14.5557 15.0864C14.5557 13.7323 15.65 12.6345 17 12.6345Z" fill="#333333"/>
</svg>
